<?xml version="1.0" encoding="UTF-8" standalone="no"?>
<!DOCTYPE svg PUBLIC "-//W3C//DTD SVG 1.1//EN" "http://www.w3.org/Graphics/SVG/1.1/DTD/svg11.dtd">
<!-- Created with Vectornator (http://vectornator.io/) -->
<svg height="100%" stroke-miterlimit="10" style="fill-rule:nonzero;clip-rule:evenodd;stroke-linecap:round;stroke-linejoin:round;" version="1.1" viewBox="0 0 1024 1024" width="100%" xml:space="preserve" xmlns="http://www.w3.org/2000/svg" xmlns:vectornator="http://vectornator.io" xmlns:xlink="http://www.w3.org/1999/xlink">
<defs/>
<clipPath id="ArtboardFrame">
<rect height="1024" width="1024" x="0" y="0"/>
</clipPath>
<g clip-path="url(#ArtboardFrame)" id="avatar" vectornator:layerName="avatar">
<path d="M394.25 484.666C524.512 366.915 524.438 341.83 617.787 469.66C639.531 499.435 574.702 441.951 593.533 546.965C646.306 841.254 811.552 849.892 811.552 849.892C811.552 849.892 685.882 1019.1 500.053 1018.16C356.146 1017.44 212.982 865.218 212.982 865.218C212.982 865.218 425.318 819.516 430.69 555.038C431.693 505.654 360.195 515.449 394.25 484.666Z" fill="#f5e5d1" fill-rule="nonzero" opacity="1" stroke="none" vectornator:layerName="neck"/>
<path d="M516.477 791.086C585.562 796.449 648.447 719.59 648.447 719.59L861.294 886.254C861.294 886.254 804.736 942.165 721.047 975.385C637.358 1008.6 576.638 1019.78 526.867 1019.21C475.596 1018.63 424.829 1020.39 336.397 988.631C247.964 956.875 172.807 892.11 172.807 892.11L389.371 723.305C389.371 723.305 447.392 785.722 516.477 791.086Z" fill="#ffffff" fill-rule="nonzero" opacity="1" stroke="#000000" stroke-linecap="butt" stroke-linejoin="round" stroke-width="10" vectornator:layerName="shirt"/>
<path d="M525.873 796.653L527.598 1013.99C527.598 1013.99 578.823 1016.22 644.354 996.469C709.886 976.719 754.196 956.823 789.723 934.994C825.249 913.164 853.777 886.334 853.777 886.334L649.298 726.119C649.298 726.119 635.146 742.095 605.772 765.363C574.525 790.114 525.873 796.653 525.873 796.653Z" fill="#e6e6e6" fill-rule="nonzero" opacity="1" stroke="none" vectornator:layerName="Shirt shade"/>
<path d="M305.641 316.736C297.697 288.996 282.551 265.353 273.947 275.19C265.342 285.028 265.572 321.303 271.222 356.085C276.873 390.866 296.102 417.087 296.102 417.087L305.719 386.153C305.719 386.153 313.584 344.477 305.641 316.736Z" fill="#ccb9a1" fill-rule="nonzero" opacity="1" stroke="#dec7aa" stroke-linecap="butt" stroke-linejoin="round" stroke-width="10.961" vectornator:layerName="Left ear"/>
<path d="M736.539 279.204C725.164 283.127 709.811 324.383 712.629 359.508C715.446 394.633 727.519 423.57 727.519 423.57C727.519 423.57 756.956 379.753 758.126 343.817C759.296 307.881 747.913 275.281 736.539 279.204Z" fill="#b0936d" fill-rule="nonzero" opacity="1" stroke="#c0a785" stroke-linecap="butt" stroke-linejoin="round" stroke-width="10.961" vectornator:layerName="right ear"/>
<path d="M305.393 302.445C305.393 156.137 380.434 83.5275 509.04 78.4504C639.611 73.2958 718.788 158.051 718.788 304.359C718.788 345.722 722.929 401.543 702.888 450.842C687.462 488.787 649.812 524.805 638.353 543.816C607.42 595.137 580.003 618.616 514.709 618.616C444.057 618.616 421.99 595.169 383.442 536.723C361.12 502.879 331.596 466.336 320.737 438.588C304.713 397.639 305.393 342.503 305.393 302.445Z" fill="#f5e5d1" fill-rule="nonzero" opacity="1" stroke="#e5c396" stroke-linecap="butt" stroke-linejoin="round" stroke-width="10" vectornator:layerName="face"/>
<path d="M526.029 786.255L508.002 84.2827C508.002 84.2827 646.784 112.555 694.053 206.32C718.127 254.074 719.747 314.424 716.312 365.334C712.547 421.142 700.997 455.575 692.918 467.532C644.765 538.795 616.149 572.987 616.149 572.987L602.851 591.068C602.851 591.068 610.559 621.967 621.352 654.339C632.144 686.712 647.341 714.267 647.341 714.267C647.341 714.267 620.807 746.549 591.802 764.828C558.406 785.874 526.029 786.255 526.029 786.255Z" fill="#dec7aa" fill-rule="nonzero" opacity="1" stroke="none" vectornator:layerName="skin shade"/>
<path d="M305.393 302.445C305.393 156.137 380.434 83.5275 509.04 78.4504C639.611 73.2958 718.788 158.051 718.788 304.359C718.788 345.722 722.929 401.543 702.888 450.842C687.462 488.787 649.812 524.805 638.353 543.816C607.42 595.137 580.003 618.616 514.709 618.616C444.057 618.616 421.99 595.169 383.442 536.723C361.12 502.879 331.596 466.336 320.737 438.588C304.713 397.639 305.393 342.503 305.393 302.445Z" fill="none" opacity="1" stroke="#e5c396" stroke-linecap="butt" stroke-linejoin="round" stroke-width="10" vectornator:layerName="Face-outline"/>
<path d="M303.141 290.884C303.141 290.884 297.101 193.972 343.439 139.795C362.782 117.18 379.357 95.551 401.768 85.5418C433.043 71.5737 427.527 37.2961 446.286 37.3476C459.343 37.3835 548.419 61.5694 598.56 82.6939C649.736 104.254 661.908 122.821 666.737 128.88C670.344 133.406 693.599 159.339 703.591 186.584C720.079 231.544 724.374 284.39 721.13 282.32C707.974 273.923 693.362 191.491 640.226 150.234C587.09 108.977 577.388 109.625 497.358 119.99C417.328 130.354 352.494 135.035 335.918 186.482C330.347 203.769 303.141 290.884 303.141 290.884Z" fill="#7e5006" fill-rule="nonzero" opacity="1" stroke="none" vectornator:layerName="hair"/>
<path d="M405.811 316.749C405.811 312.471 409.279 309.003 413.556 309.003C417.834 309.003 421.302 312.471 421.302 316.749C421.302 321.026 417.834 324.494 413.556 324.494C409.279 324.494 405.811 321.026 405.811 316.749Z" fill="#000000" fill-rule="nonzero" opacity="1" stroke="#000000" stroke-linecap="butt" stroke-linejoin="round" stroke-width="10" vectornator:layerName="eye"/>
<path d="M606.65 326.589C606.65 322.311 610.118 318.844 614.396 318.844C618.674 318.844 622.141 322.311 622.141 326.589C622.141 330.867 618.674 334.334 614.396 334.334C610.118 334.334 606.65 330.867 606.65 326.589Z" fill="#000000" fill-rule="nonzero" opacity="1" stroke="#000000" stroke-linecap="butt" stroke-linejoin="round" stroke-width="10" vectornator:layerName="eye"/>
<path d="M447.583 461.335L445.795 470.175L513.419 473.426L587.067 470.935L584.053 462.871" fill="none" opacity="1" stroke="#000000" stroke-linecap="butt" stroke-linejoin="round" stroke-width="5" vectornator:layerName="smile"/>
<path d="M357.023 255.384L377.937 242.917L404.659 245.951L435.171 255.596L449.4 264.986L463.966 276.377L357.023 255.384Z" fill="#7e5006" fill-rule="nonzero" opacity="1" stroke="#7e5006" stroke-linecap="butt" stroke-linejoin="round" stroke-width="10" vectornator:layerName="left eyebrow"/>
<path d="M504.48 345.39C504.48 319.935 507.794 284.855 515.799 284.855C523.805 284.855 525.14 319.011 525.14 344.467C525.14 355.393 542.631 371.71 540.634 379.609C537.977 390.114 519.856 402.276 515.287 402.276C510.557 402.276 493.95 387.368 491.304 376.223C489.471 368.505 504.48 355.806 504.48 345.39Z" fill="#c0a785" fill-rule="nonzero" opacity="1" stroke="#b0936d" stroke-linecap="butt" stroke-linejoin="round" stroke-width="10"/>
<path d="M674.676 262.656L654.192 252.423L628.021 254.914L598.138 262.829L584.202 270.536L569.936 279.884L674.676 262.656Z" fill="#7e5006" fill-rule="nonzero" opacity="1" stroke="#7e5006" stroke-linecap="butt" stroke-linejoin="round" stroke-width="10.961" vectornator:layerName="Right eyebrow"/>
<path d="M290.464 405.783C290.464 404.939 291.361 404.254 292.469 404.254C293.576 404.254 294.473 404.939 294.473 405.783C294.473 406.627 293.576 407.312 292.469 407.312C291.361 407.312 290.464 406.627 290.464 405.783Z" fill="#ccb9a1" fill-rule="nonzero" opacity="1" stroke="#000000" stroke-linecap="butt" stroke-linejoin="round" stroke-width="10.961" vectornator:layerName="Left gauge"/>
<path d="M727.067 416.233C727.067 415.388 727.965 414.704 729.072 414.704C730.179 414.704 731.077 415.388 731.077 416.233C731.077 417.077 730.179 417.761 729.072 417.761C727.965 417.761 727.067 417.077 727.067 416.233Z" fill="#ccb9a1" fill-rule="nonzero" opacity="1" stroke="#000000" stroke-linecap="butt" stroke-linejoin="round" stroke-width="10.961" vectornator:layerName="right gauge"/>
<path d="M345.82 261.723L383.292 264.561L490.834 272.707C490.834 272.707 493.919 377.502 464.636 375.702C360.581 369.304 461.8 375.22 358.005 368.304C315.728 365.487 345.82 261.723 345.82 261.723Z" fill="#ffffff" fill-opacity="0.6" fill-rule="nonzero" opacity="1" stroke="#000000" stroke-linecap="butt" stroke-linejoin="round" stroke-width="10" vectornator:layerName="Curve"/>
<path d="M327.049 262.132L340.597 262.132L340.597 282.186L327.049 282.186L327.049 262.132Z" fill="#000000" fill-rule="nonzero" opacity="1" stroke="#000000" stroke-linecap="butt" stroke-linejoin="round" stroke-width="10"/>
<path d="M549.504 276.703L585.055 274.947L692.887 276.96C692.887 276.96 701.931 381.41 672.593 381.279C568.342 380.813 669.734 380.959 565.714 379.961C523.345 379.555 549.504 276.703 549.504 276.703Z" fill="#c3c3c3" fill-opacity="0.6" fill-rule="nonzero" opacity="1" stroke="#000000" stroke-linecap="butt" stroke-linejoin="round" stroke-width="10"/>
<path d="M694.487 278.377L708.035 278.377L708.035 298.431L694.487 298.431L694.487 278.377Z" fill="#000000" fill-rule="nonzero" opacity="1" stroke="#000000" stroke-linecap="butt" stroke-linejoin="round" stroke-width="10" vectornator:layerName="Rectangle"/>
<path d="M491.704 293.67C491.704 293.67 504.905 280.675 517.82 281.838C530.735 283.001 543.53 297.282 543.53 297.282" fill="none" opacity="1" stroke="#000000" stroke-linecap="butt" stroke-linejoin="round" stroke-width="10"/>
<path d="M521.128 587.375C520.479 587.724 519.642 587.827 518.842 587.586C518.042 587.346 517.289 586.758 516.841 585.923C516.392 585.089 516.26 584.014 516.569 582.985C516.878 581.957 517.634 580.988 518.707 580.412C519.78 579.835 521.162 579.664 522.485 580.062C523.807 580.46 525.052 581.432 525.794 582.811C526.535 584.19 526.754 585.968 526.243 587.668C525.731 589.368 524.482 590.969 522.709 591.923C520.935 592.876 518.65 593.158 516.464 592.5C514.278 591.843 512.219 590.236 510.994 587.956C509.768 585.676 509.406 582.737 510.251 579.927C511.096 577.116 513.162 574.469 516.093 572.894C519.025 571.318 522.803 570.852 526.417 571.939C530.031 573.026 533.434 575.682 535.46 579.451C537.486 583.22 538.085 588.078 536.687 592.724C535.29 597.37 531.875 601.746 527.029 604.35C522.183 606.955 515.937 607.725 509.963 605.929C503.989 604.132 498.364 599.741 495.015 593.511C491.666 587.28 490.675 579.25 492.986 571.569" fill="none" opacity="0.445664" stroke="#7e5006" stroke-linecap="butt" stroke-linejoin="round" stroke-width="3.1"/>
</g>
</svg>
