<?xml version="1.0" encoding="UTF-8" standalone="no"?>
<!DOCTYPE svg PUBLIC "-//W3C//DTD SVG 1.1//EN" "http://www.w3.org/Graphics/SVG/1.1/DTD/svg11.dtd">
<!-- Created with Vectornator (http://vectornator.io/) -->
<svg height="100%" stroke-miterlimit="10" style="fill-rule:nonzero;clip-rule:evenodd;stroke-linecap:round;stroke-linejoin:round;" version="1.1" viewBox="0 0 1024 1024" width="100%" xml:space="preserve" xmlns="http://www.w3.org/2000/svg" xmlns:vectornator="http://vectornator.io" xmlns:xlink="http://www.w3.org/1999/xlink">
<defs/>
<g id="avatar" vectornator:layerName="avatar">
<path d="M428.708 23.849C351.494 65.5388 316.791 80.8926 297.321 132.094C277.85 183.295 263.872 318.439 226.762 231.127C189.651 143.816 271.956 449.673 303.556 309.009C324.741 214.703 252.103 448.276 317.287 470.585C382.472 492.894 299.538 592.225 349.269 570.197C495.812 505.289 263.472 756.486 577.912 527.66C677.926 454.877 523.858 684.792 658.582 573.145C793.306 461.497 695.982 538.269 700.426 491.39C704.869 444.512 807.799 376.091 722.978 415.154C638.157 454.216 860.335 346.779 738.861 320.333C674.331 306.284 849.73 275.447 795.873 221.238C742.016 167.028 853.353 198.084 761.73 192.32C670.106 186.556 811.665 125.484 704.809 78.2356C597.954 30.9872 608.475-25.1037 483.817 28.6915C435.572 49.5112 485.992-7.08055 428.708 23.849Z" fill="#7e5006" fill-rule="nonzero" opacity="1" stroke="none"/>
<path d="M394.25 484.666C524.512 366.915 524.438 341.83 617.787 469.66C639.531 499.435 574.702 441.951 593.533 546.965C646.306 841.254 811.552 849.892 811.552 849.892C811.552 849.892 685.882 1019.1 500.053 1018.16C356.146 1017.44 212.982 865.218 212.982 865.218C212.982 865.218 425.318 819.516 430.69 555.038C431.693 505.654 360.195 515.449 394.25 484.666Z" fill="#f5e5d1" fill-rule="nonzero" opacity="1" stroke="none"/>
<path d="M516.477 791.086C585.562 796.449 648.447 719.59 648.447 719.59L861.294 886.254C861.294 886.254 786.159 953.988 678.627 989.748C571.096 1025.51 411.817 1019.4 347.157 991.715C247.835 949.191 172.807 892.11 172.807 892.11L389.371 723.305C389.371 723.305 447.392 785.722 516.477 791.086Z" fill="#ffffff" fill-rule="nonzero" opacity="1" stroke="#000000" stroke-linecap="butt" stroke-linejoin="round" stroke-width="10"/>
<path d="M525.931 798.176L527.48 1008.45C527.48 1008.45 622.054 1009.24 711.419 971.514C791.806 937.576 853.777 886.334 853.777 886.334L649.061 727.103C649.061 727.103 627.077 756.934 594.292 775.082C561.507 793.23 525.931 798.176 525.931 798.176Z" fill="#e6e6e6" fill-rule="nonzero" opacity="1" stroke="none"/>
<path d="M305.641 316.736C297.697 288.996 282.551 265.353 273.947 275.19C265.342 285.028 265.572 321.303 271.222 356.085C276.873 390.866 296.102 417.087 296.102 417.087L305.719 386.153C305.719 386.153 313.584 344.477 305.641 316.736Z" fill="#ccb9a1" fill-rule="nonzero" opacity="1" stroke="#dec7aa" stroke-linecap="butt" stroke-linejoin="round" stroke-width="10.961"/>
<path d="M736.539 279.204C725.164 283.127 709.811 324.383 712.629 359.508C715.446 394.633 727.519 423.57 727.519 423.57C727.519 423.57 756.956 379.753 758.126 343.817C759.296 307.881 747.913 275.281 736.539 279.204Z" fill="#b0936d" fill-rule="nonzero" opacity="1" stroke="#c0a785" stroke-linecap="butt" stroke-linejoin="round" stroke-width="10.961"/>
<path d="M305.393 302.445C305.393 156.137 380.434 83.5275 509.04 78.4504C639.611 73.2958 718.788 158.051 718.788 304.359C718.788 345.722 722.929 401.543 702.888 450.842C687.462 488.787 649.812 524.805 638.353 543.816C607.42 595.137 580.003 618.616 514.709 618.616C444.057 618.616 421.99 595.169 383.442 536.723C361.12 502.879 331.596 466.336 320.737 438.588C304.713 397.639 305.393 342.503 305.393 302.445Z" fill="#f5e5d1" fill-rule="nonzero" opacity="1" stroke="#e5c396" stroke-linecap="butt" stroke-linejoin="round" stroke-width="10"/>
<path d="M525.948 783.975L508.002 84.2827C508.002 84.2827 647.354 142.629 694.623 236.394C741.892 330.16 704.905 437.263 688.502 464.736C644.411 538.581 612.711 570.525 612.711 570.525L601.014 592.261C601.014 592.261 609.824 622.216 620.616 654.588C631.408 686.96 646.707 712.672 646.707 712.672C646.707 712.672 621.36 747.458 591.802 764.828C562.243 782.198 525.948 783.975 525.948 783.975Z" fill="#dec7aa" fill-rule="nonzero" opacity="1" stroke="none"/>
<path d="M412.347 88.1543C412.347 88.1543 464.368 62.056 569.611 62.3449C624.408 62.4954 721.263 153.557 721.263 153.557C721.263 153.557 742.607 176.91 742.042 231.065C741.864 248.12 719.352 307.346 718.998 330.259C718.653 352.61 706.349 275.424 678.436 219.694C661.523 185.925 628.606 168.254 618.559 161.842C586.184 141.179 513.212 134.973 464.995 120.766C429.878 110.419 411.999 88.9966 412.347 88.1543Z" fill="#7e5006" fill-rule="nonzero" opacity="1" stroke="none"/>
<path d="M310.961 332.868C310.961 332.868 282.057 143.908 334.63 133.45C357.809 128.839 415.23 75.3938 447.432 75.4822C502.229 75.6327 429.924 185.792 419.878 179.38C363.923 143.669 310.135 334.867 310.961 332.868Z" fill="#7e5006" fill-rule="nonzero" opacity="1" stroke="none"/>
<path d="M405.811 316.749C405.811 312.471 409.279 309.003 413.556 309.003C417.834 309.003 421.302 312.471 421.302 316.749C421.302 321.026 417.834 324.494 413.556 324.494C409.279 324.494 405.811 321.026 405.811 316.749Z" fill="#000000" fill-rule="nonzero" opacity="1" stroke="#000000" stroke-linecap="butt" stroke-linejoin="round" stroke-width="10"/>
<path d="M606.65 326.589C606.65 322.311 610.118 318.844 614.396 318.844C618.674 318.844 622.141 322.311 622.141 326.589C622.141 330.867 618.674 334.334 614.396 334.334C610.118 334.334 606.65 330.867 606.65 326.589Z" fill="#000000" fill-rule="nonzero" opacity="1" stroke="#000000" stroke-linecap="butt" stroke-linejoin="round" stroke-width="10"/>
<path d="M447.583 461.335L445.795 470.175L513.419 473.426L587.067 470.935L584.053 462.871" fill="none" opacity="1" stroke="#000000" stroke-linecap="butt" stroke-linejoin="round" stroke-width="5"/>
<path d="M399.168 552.38L410.106 573.148C410.106 573.148 425.385 598.558 446.542 609.329C467.699 620.099 475.556 619.058 499.672 620.051C523.787 621.044 541.003 621.457 560.055 616.267C579.106 611.078 592.241 600.652 592.241 600.652L614.352 580.456L635.627 547.927C635.627 547.927 599.837 569.095 583.821 579.098C567.804 589.1 540.572 597.66 540.572 597.66L508.591 573.287L481.552 597.314L452.492 582.245L399.168 552.38Z" fill="#573c12" fill-rule="nonzero" opacity="1" stroke="#573c12" stroke-linecap="butt" stroke-linejoin="round" stroke-width="10"/>
<path d="M584.348 450.333C584.348 450.333 578.944 411.975 554.883 410.086C530.821 408.197 493.352 402.889 474.121 407.367C454.89 411.846 448.843 445.631 448.843 445.631C448.843 445.631 494.825 421.264 514.027 420.715C533.23 420.165 584.348 450.333 584.348 450.333Z" fill="#573c12" fill-rule="nonzero" opacity="1" stroke="#573c12" stroke-linecap="butt" stroke-linejoin="round" stroke-width="10"/>
<path d="M357.023 255.384L377.937 242.917L404.659 245.951L435.171 255.596L449.4 264.986L463.966 276.377L357.023 255.384Z" fill="#7e5006" fill-rule="nonzero" opacity="1" stroke="#7e5006" stroke-linecap="butt" stroke-linejoin="round" stroke-width="10"/>
<path d="M504.48 345.39C504.48 319.935 507.794 284.855 515.799 284.855C523.805 284.855 525.14 319.011 525.14 344.467C525.14 355.393 542.631 371.71 540.634 379.609C537.977 390.114 519.856 402.276 515.287 402.276C510.557 402.276 493.95 387.368 491.304 376.223C489.471 368.505 504.48 355.806 504.48 345.39Z" fill="#c0a785" fill-rule="nonzero" opacity="1" stroke="#b0936d" stroke-linecap="butt" stroke-linejoin="round" stroke-width="10"/>
<path d="M674.676 262.656L654.192 252.423L628.021 254.914L598.138 262.829L584.202 270.536L569.936 279.884L674.676 262.656Z" fill="#7e5006" fill-rule="nonzero" opacity="1" stroke="#7e5006" stroke-linecap="butt" stroke-linejoin="round" stroke-width="10.961"/>
<path d="M290.464 405.783C290.464 404.939 291.361 404.254 292.469 404.254C293.576 404.254 294.473 404.939 294.473 405.783C294.473 406.627 293.576 407.312 292.469 407.312C291.361 407.312 290.464 406.627 290.464 405.783Z" fill="#ccb9a1" fill-rule="nonzero" opacity="1" stroke="#000000" stroke-linecap="butt" stroke-linejoin="round" stroke-width="10.961"/>
<path d="M727.067 416.233C727.067 415.388 727.965 414.704 729.072 414.704C730.179 414.704 731.077 415.388 731.077 416.233C731.077 417.077 730.179 417.761 729.072 417.761C727.965 417.761 727.067 417.077 727.067 416.233Z" fill="#ccb9a1" fill-rule="nonzero" opacity="1" stroke="#000000" stroke-linecap="butt" stroke-linejoin="round" stroke-width="10.961"/>
<path d="M345.82 261.723L383.292 264.561L490.834 272.707C490.834 272.707 493.919 377.502 464.636 375.702C360.581 369.304 461.8 375.22 358.005 368.304C315.728 365.487 345.82 261.723 345.82 261.723Z" fill="#ffffff" fill-opacity="0.6" fill-rule="nonzero" opacity="1" stroke="#000000" stroke-linecap="butt" stroke-linejoin="round" stroke-width="10"/>
<path d="M327.049 262.132L340.597 262.132L340.597 282.186L327.049 282.186L327.049 262.132Z" fill="#000000" fill-rule="nonzero" opacity="1" stroke="#000000" stroke-linecap="butt" stroke-linejoin="round" stroke-width="10"/>
<path d="M549.504 276.703L585.055 274.947L692.887 276.96C692.887 276.96 701.931 381.41 672.593 381.279C568.342 380.813 669.734 380.959 565.714 379.961C523.345 379.555 549.504 276.703 549.504 276.703Z" fill="#c3c3c3" fill-opacity="0.6" fill-rule="nonzero" opacity="1" stroke="#000000" stroke-linecap="butt" stroke-linejoin="round" stroke-width="10"/>
<path d="M694.487 278.377L708.035 278.377L708.035 298.431L694.487 298.431L694.487 278.377Z" fill="#000000" fill-rule="nonzero" opacity="1" stroke="#000000" stroke-linecap="butt" stroke-linejoin="round" stroke-width="10"/>
<path d="M491.704 293.67C491.704 293.67 504.905 280.675 517.82 281.838C530.735 283.001 543.53 297.282 543.53 297.282" fill="none" opacity="1" stroke="#000000" stroke-linecap="butt" stroke-linejoin="round" stroke-width="10"/>
</g>
</svg>
