<?xml version="1.0" encoding="utf-8"?>
<svg viewBox="0 0 500 500" xmlns="http://www.w3.org/2000/svg">
  <line x1="236.279" y1="150.03" x2="243.49" y2="83.859"/>
  <g transform="matrix(1, 0, 0, 1, 21.719032, 2.83513)">
    <line x1="221.771" y1="81.024" x2="225.164" y2="148.044"/>
    <line x1="225.164" y1="148.044" x2="238.738" y2="149.316"/>
    <line x1="238.738" y1="149.316" x2="242.131" y2="154.83"/>
    <line x1="242.131" y1="154.83" x2="248.07" y2="154.83"/>
    <line x1="248.918" y1="154.83" x2="241.283" y2="161.193"/>
    <line x1="241.283" y1="161.193" x2="280.307" y2="180.281"/>
    <line x1="279.459" y1="179.857" x2="279.459" y2="189.613"/>
    <line x1="279.034" y1="189.613" x2="293.456" y2="195.975"/>
    <line x1="292.184" y1="195.975" x2="271.823" y2="201.914"/>
    <line x1="272.248" y1="201.489" x2="272.248" y2="207.428"/>
    <line x1="272.248" y1="207.428" x2="279.459" y2="211.67"/>
    <line x1="279.459" y1="211.67" x2="279.034" y2="215.063"/>
    <line x1="279.034" y1="215.063" x2="256.553" y2="219.305"/>
    <line x1="256.553" y1="219.305" x2="243.828" y2="292.263"/>
    <line x1="243.404" y1="291.838" x2="242.555" y2="369.886"/>
    <line x1="242.555" y1="369.886" x2="258.25" y2="503.501"/>
  </g>
  <g transform="matrix(-1, 0, 0, 1, 461.356842, 2.185709)">
    <line x1="225.164" y1="148.044" x2="238.738" y2="149.316"/>
    <line x1="238.738" y1="149.316" x2="242.131" y2="154.83"/>
    <line x1="242.131" y1="154.83" x2="248.07" y2="154.83"/>
    <line x1="248.918" y1="154.83" x2="241.283" y2="161.193"/>
    <line x1="241.283" y1="161.193" x2="280.307" y2="180.281"/>
    <line x1="279.459" y1="179.857" x2="279.459" y2="189.613"/>
    <line x1="279.034" y1="189.613" x2="293.456" y2="195.975"/>
    <line x1="292.184" y1="195.975" x2="271.823" y2="201.914"/>
    <line x1="272.248" y1="201.489" x2="272.248" y2="207.428"/>
    <line x1="272.248" y1="207.428" x2="279.459" y2="211.67"/>
    <line x1="279.459" y1="211.67" x2="279.034" y2="215.063"/>
    <line x1="279.034" y1="215.063" x2="256.553" y2="219.305"/>
    <line x1="256.553" y1="219.305" x2="243.828" y2="292.263"/>
    <line x1="243.404" y1="291.838" x2="242.555" y2="369.886"/>
    <line x1="242.555" y1="369.886" x2="258.25" y2="503.501"/>
  </g>
  <line x1="216.044" y1="222.197" x2="229.421" y2="221.981"/>
  <line x1="250.566" y1="221.981" x2="264.806" y2="221.981"/>
  <line x1="250.782" y1="221.981" x2="250.782" y2="284.781"/>
  <line x1="250.782" y1="283.905" x2="264.375" y2="222.197"/>
  <line x1="228.359" y1="221.833" x2="228.359" y2="478.613"/>
  <line x1="216.445" y1="221.833" x2="223.147" y2="297.039"/>
  <line x1="223.147" y1="297.039" x2="223.147" y2="375.971"/>
  <line x1="223.147" y1="374.851" x2="212.003" y2="478.9"/>
  <line x1="247.519" y1="378.45" x2="247.519" y2="397.733"/>
  <line x1="247.519" y1="403.089" x2="247.519" y2="434.159"/>
  <line x1="246.983" y1="439.51" x2="246.983" y2="478.528"/>
  <line x1="246.901" y1="485.693" x2="246.901" y2="504.447"/>
  <line x1="247.407" y1="378.329" x2="250.345" y2="397.561"/>
  <line x1="250.345" y1="397.561" x2="246.873" y2="396.76"/>
  <line x1="246.873" y1="403.704" x2="249.811" y2="403.972"/>
  <line x1="249.811" y1="403.972" x2="252.749" y2="433.353"/>
  <line x1="247.674" y1="433.086" x2="252.482" y2="433.086"/>
  <line x1="246.072" y1="439.764" x2="254.619" y2="439.764"/>
  <line x1="254.619" y1="439.764" x2="259.16" y2="478.495"/>
  <line x1="247.14" y1="478.228" x2="259.209" y2="478.228"/>
  <line x1="246.573" y1="485.722" x2="259.661" y2="485.722"/>
  <line x1="259.193" y1="486.191" x2="260.796" y2="503.019"/>
  <line x1="228.494" y1="478.29" x2="212.074" y2="478.29"/>
  <line x1="228.486" y1="485.792" x2="210.902" y2="485.792"/>
  <line x1="211.02992350273362" y1="485.7227008583788" x2="208.89556360183306" y2="506.1967458336842"/>
  <line x1="228.2629034433382" y1="485.88080159177883" x2="228.2629034433382" y2="504.78194098545197"/>
</svg>